HIERARCHY
ROOT Hips
{
	OFFSET 0.000000 0.000000 0.000000
	CHANNELS 6 Xposition Yposition Zposition Zrotation Xrotation Yrotation
	JOINT Spine
	{
		OFFSET 0.000000 -0.000000 0.070167
		CHANNELS 6 Xposition Yposition Zposition Zrotation Xrotation Yrotation
		JOINT Spine1
		{
			OFFSET 0.000000 -0.000000 0.166666
			CHANNELS 6 Xposition Yposition Zposition Zrotation Xrotation Yrotation
			JOINT Neck
			{
				OFFSET 0.000000 -0.000000 0.183780
				CHANNELS 6 Xposition Yposition Zposition Zrotation Xrotation Yrotation
				JOINT Head
				{
					OFFSET 0.000000 -0.017114 0.132633
					CHANNELS 6 Xposition Yposition Zposition Zrotation Xrotation Yrotation
					End Site
					{
						OFFSET 0.000000 -0.000000 0.171140
					}
				}
			}
			JOINT LeftShoulder
			{
				OFFSET 0.034466 0.004091 0.144174
				CHANNELS 6 Xposition Yposition Zposition Zrotation Xrotation Yrotation
				JOINT LeftArm
				{
					OFFSET 0.121044 0.000000 0.000000
					CHANNELS 6 Xposition Yposition Zposition Zrotation Xrotation Yrotation
					JOINT LeftForeArm
					{
						OFFSET 0.257070 0.000000 0.000000
						CHANNELS 6 Xposition Yposition Zposition Zrotation Xrotation Yrotation
						JOINT LeftHand
						{
							OFFSET 0.224060 0.000000 0.000000
							CHANNELS 6 Xposition Yposition Zposition Zrotation Xrotation Yrotation
							End Site
							{
								OFFSET 0.128355 0.000000 0.000000
							}
						}
					}
				}
			}
			JOINT RightShoulder
			{
				OFFSET -0.033538 0.004091 0.144174
				CHANNELS 6 Xposition Yposition Zposition Zrotation Xrotation Yrotation
				JOINT RightArm
				{
					OFFSET -0.121044 0.000000 0.000000
					CHANNELS 6 Xposition Yposition Zposition Zrotation Xrotation Yrotation
					JOINT RightForeArm
					{
						OFFSET -0.257070 0.000000 0.000000
						CHANNELS 6 Xposition Yposition Zposition Zrotation Xrotation Yrotation
						JOINT RightHand
						{
							OFFSET -0.224060 0.000000 0.000000
							CHANNELS 6 Xposition Yposition Zposition Zrotation Xrotation Yrotation
							End Site
							{
								OFFSET -0.128355 0.000000 0.000000
							}
						}
					}
				}
			}
		}
	}
	JOINT LeftUpLeg
	{
		OFFSET 0.085570 0.000000 0.000000
		CHANNELS 6 Xposition Yposition Zposition Zrotation Xrotation Yrotation
		JOINT LeftLeg
		{
			OFFSET 0.000000 0.000000 -0.385526
			CHANNELS 6 Xposition Yposition Zposition Zrotation Xrotation Yrotation
			JOINT LeftFoot
			{
				OFFSET 0.000000 0.000000 -0.365921
				CHANNELS 6 Xposition Yposition Zposition Zrotation Xrotation Yrotation
				JOINT LeftToeBase
				{
					OFFSET 0.000000 -0.128355 -0.055620
					CHANNELS 6 Xposition Yposition Zposition Zrotation Xrotation Yrotation
					End Site
					{
						OFFSET 0.000000 -0.034228 0.000000
					}
				}
			}
		}
	}
	JOINT RightUpLeg
	{
		OFFSET -0.085570 0.000000 0.000000
		CHANNELS 6 Xposition Yposition Zposition Zrotation Xrotation Yrotation
		JOINT RightLeg
		{
			OFFSET 0.000000 0.000000 -0.385526
			CHANNELS 6 Xposition Yposition Zposition Zrotation Xrotation Yrotation
			JOINT RightFoot
			{
				OFFSET 0.000000 0.000000 -0.365921
				CHANNELS 6 Xposition Yposition Zposition Zrotation Xrotation Yrotation
				JOINT RightToeBase
				{
					OFFSET 0.000000 -0.128355 -0.055620
					CHANNELS 6 Xposition Yposition Zposition Zrotation Xrotation Yrotation
					End Site
					{
						OFFSET 0.000000 -0.034228 0.000000
					}
				}
			}
		}
	}
}
MOTION
Frames: 6
Frame Time: 0.016667
0.058741 0.710867 0.801942 -34.941267 -9.227525 -5.758281 0.000000 -0.000000 0.070167 -8.315293 3.203040 2.181720 0.000000 0.000000 0.166666 -2.090136 8.305419 -9.091066 -0.000000 -0.000000 0.183780 6.253343 4.658501 -7.233012 0.000000 -0.017114 0.132633 7.511187 11.038076 9.467888 0.034466 0.004091 0.144174 -4.902598 9.294404 -5.190949 0.121044 0.000000 0.000000 -46.816384 1.252345 70.269505 0.257070 -0.000000 0.000000 -55.664280 7.697469 -11.646280 0.224060 -0.000000 -0.000000 -6.173399 1.238241 5.697439 -0.033538 0.004091 0.144174 -18.076499 8.728379 3.748698 -0.121044 0.000000 0.000000 44.786121 4.670317 -71.430091 -0.257070 0.000000 -0.000000 30.280158 -2.966388 19.756059 -0.224060 0.000000 0.000000 10.845011 -6.085333 23.609852 0.085570 -0.000000 -0.000000 11.352081 -2.041837 -6.954658 -0.000000 0.000000 -0.385526 21.262580 44.600562 -7.398697 -0.000000 0.000000 -0.365921 8.392603 -8.201140 12.344540 0.000000 -0.128355 -0.055620 -0.000001 0.000001 -0.000000 -0.085570 -0.000000 -0.000000 3.763273 -3.175501 5.139438 -0.000000 0.000000 -0.385526 40.939297 30.003320 -18.665092 -0.000000 0.000000 -0.365921 -17.575545 -14.266180 4.818770 -0.000000 -0.128355 -0.055620 -0.000001 -0.000001 -0.000000 
0.059354 0.709352 0.798403 -35.979859 -8.973488 -5.963008 0.000000 -0.000000 0.070167 -8.096676 3.468924 2.139412 -0.000000 -0.000000 0.166666 -2.027451 8.073592 -9.194200 -0.000000 -0.000000 0.183780 6.470389 5.625970 -7.681186 -0.000000 -0.017114 0.132633 7.851220 9.744785 11.095640 0.034466 0.004091 0.144174 -5.030443 9.414294 -5.091417 0.121044 -0.000000 -0.000000 -47.193240 1.564112 70.011591 0.257070 -0.000000 0.000000 -55.058981 7.801214 -11.944991 0.224060 -0.000000 0.000000 -6.448023 1.222820 6.185453 -0.033538 0.004091 0.144174 -18.118211 8.930409 3.775606 -0.121044 -0.000000 0.000000 45.935252 4.895047 -71.234242 -0.257070 -0.000000 -0.000000 31.108964 -2.994062 20.196361 -0.224060 -0.000000 0.000000 10.891397 -6.460294 22.834489 0.085570 -0.000000 0.000000 11.512926 -2.934356 -7.043994 0.000000 0.000000 -0.385526 22.307859 45.337457 -8.153374 -0.000000 0.000000 -0.365921 8.258815 -8.894432 12.599168 0.000000 -0.128355 -0.055620 -0.000000 -0.000002 0.000001 -0.085570 -0.000000 -0.000000 6.100880 -4.134165 5.906634 -0.000000 0.000000 -0.385526 43.774577 29.780390 -22.467275 0.000000 0.000000 -0.365921 -20.101436 -15.106068 5.674483 -0.000000 -0.128355 -0.055620 -0.000001 -0.000000 -0.000000 
0.059037 0.707281 0.794068 -36.745605 -9.064360 -6.174968 0.000000 -0.000000 0.070167 -8.300707 3.469739 2.397091 -0.000000 -0.000000 0.166666 -2.030647 8.682408 -9.364338 -0.000000 0.000000 0.183780 6.937791 5.848784 -7.555269 -0.000000 -0.017114 0.132633 8.362881 9.291363 11.563795 0.034466 0.004091 0.144174 -4.995693 9.328053 -5.054009 0.121044 0.000000 0.000000 -47.186557 1.704092 69.699731 0.257070 -0.000000 -0.000000 -54.470335 7.573520 -11.710040 0.224060 0.000000 -0.000000 -6.409279 1.234802 5.496073 -0.033538 0.004091 0.144174 -17.505485 8.948560 3.681380 -0.121044 0.000000 0.000000 46.593167 4.946463 -71.042840 -0.257070 -0.000000 -0.000000 31.829201 -3.175010 20.605593 -0.224060 -0.000000 0.000000 11.238742 -6.892434 22.198036 0.085570 0.000000 0.000000 11.639585 -3.483258 -7.280334 0.000000 0.000000 -0.385526 22.718770 46.086445 -8.436880 0.000000 0.000000 -0.365921 8.465687 -9.795047 12.738430 0.000000 -0.128355 -0.055620 0.000000 0.000001 0.000000 -0.085570 0.000000 0.000000 3.909004 -5.239199 5.540968 -0.000000 0.000000 -0.385526 45.744372 32.318741 -22.806323 -0.000000 -0.000000 -0.365921 -18.308319 -16.107514 5.628302 -0.000000 -0.128355 -0.055620 -0.000000 0.000003 -0.000000 
0.059417 0.705865 0.789735 -37.431482 -8.859946 -6.179822 -0.000000 -0.000000 0.070167 -8.174090 3.695905 1.760932 -0.000000 -0.000000 0.166666 -2.050865 8.574431 -8.718129 -0.000000 0.000000 0.183780 7.312096 5.426057 -7.257044 -0.000000 -0.017114 0.132633 8.709997 9.799936 11.388677 0.034466 0.004091 0.144174 -5.148013 9.256634 -5.156513 0.121044 -0.000000 0.000000 -47.876539 2.553519 69.280952 0.257070 -0.000000 -0.000000 -54.101915 7.383087 -12.090736 0.224060 -0.000000 0.000000 -6.466257 0.884693 5.604041 -0.033538 0.004091 0.144174 -17.735935 9.064969 3.731827 -0.121044 -0.000000 -0.000000 46.901321 4.322388 -71.077715 -0.257070 -0.000000 0.000000 32.221482 -2.087733 20.487813 -0.224060 -0.000000 0.000000 10.965525 -6.082171 20.421233 0.085570 -0.000000 -0.000000 11.430623 -4.460779 -7.653160 0.000000 0.000000 -0.385526 23.781358 46.848418 -9.028755 -0.000000 0.000000 -0.365921 8.534880 -10.714056 12.798554 -0.000000 -0.128355 -0.055620 -0.000002 -0.000007 0.000001 -0.085570 -0.000000 -0.000000 3.835264 -6.445740 5.420848 -0.000000 0.000000 -0.385526 48.164725 33.549835 -24.849432 0.000000 0.000000 -0.365921 -18.787986 -16.979910 5.836960 0.000000 -0.128355 -0.055620 -0.000001 -0.000001 -0.000000 
0.055705 0.713767 0.793976 -36.921646 -4.488770 -2.444386 -0.000000 -0.000000 0.070167 -8.708029 -0.481423 -1.121442 0.000000 0.000000 0.166666 -2.046868 9.433981 -10.312571 -0.000000 -0.000000 0.183780 7.732933 5.712412 -6.245267 0.000000 -0.017114 0.132633 9.070026 9.141632 10.925013 0.034466 0.004091 0.144174 -5.164270 9.101453 -4.957508 0.121044 -0.000000 0.000000 -47.885654 2.742616 68.985068 0.257070 0.000000 -0.000000 -53.361048 7.328779 -11.944176 0.224060 -0.000000 -0.000000 -6.746448 0.978758 5.789039 -0.033538 0.004091 0.144174 -17.413443 8.862205 3.887361 -0.121044 -0.000000 -0.000000 48.230022 4.821912 -70.978267 -0.257070 0.000000 0.000000 33.316437 -2.175143 20.944531 -0.224060 -0.000000 0.000000 10.950022 -6.571005 19.972962 0.085570 -0.000000 0.000000 10.819674 -11.215986 -11.439836 -0.000000 0.000000 -0.385526 25.118683 47.346216 -10.231296 -0.000000 0.000000 -0.365921 7.417777 -8.939969 13.195147 -0.000000 -0.128355 -0.055620 0.000000 -0.000004 0.000001 -0.085570 -0.000000 0.000000 4.465214 -11.489054 0.931202 -0.000000 0.000000 -0.385526 51.212912 32.208232 -26.229595 -0.000000 -0.000000 -0.365921 -24.190390 -11.622729 4.450462 -0.000000 -0.128355 -0.055620 -0.000000 -0.000001 -0.000001 
0.055311 0.711441 0.788987 -37.355391 -4.674926 -2.469223 -0.000000 0.000000 0.070167 -8.810201 -0.354114 -1.312382 0.000000 -0.000000 0.166666 -2.066108 9.919298 -9.978516 -0.000000 -0.000000 0.183780 7.728540 4.450161 -7.146645 0.000000 -0.017114 0.132633 9.137162 11.072368 12.357168 0.034466 0.004091 0.144174 -5.277873 8.902250 -5.062044 0.121044 -0.000000 0.000000 -48.042168 3.215199 68.745717 0.257070 -0.000000 0.000000 -52.883740 6.986017 -12.066800 0.224060 -0.000000 -0.000000 -6.695697 0.638090 5.763302 -0.033538 0.004091 0.144174 -17.210916 8.766416 3.828826 -0.121044 -0.000000 0.000000 48.956194 4.828395 -70.882050 -0.257070 -0.000000 -0.000000 33.455776 -1.112483 21.191295 -0.224060 0.000000 -0.000000 11.769271 -5.807756 16.797406 0.085570 0.000000 0.000000 10.614216 -11.779600 -11.948607 0.000000 0.000000 -0.385526 25.750382 48.031902 -10.584392 -0.000000 -0.000000 -0.365921 7.664316 -9.913292 13.147067 -0.000000 -0.128355 -0.055620 -0.000001 0.000002 0.000000 -0.085570 0.000000 0.000000 4.861038 -11.872005 0.957225 -0.000000 0.000000 -0.385526 52.261387 33.132978 -27.746824 -0.000000 0.000000 -0.365921 -24.192535 -13.203103 4.727940 0.000000 -0.128355 -0.055620 -0.000000 0.000001 -0.000000 
